<?xml version="1.0" encoding="UTF-8"?>
<!-- Created by Vectric (http://www.vectric.com/) -->
<svg width="410.00000000mm" height="150.00000000mm" viewBox="0 0 410.00000000 150.00000000" id="svg2" version="1.1" xmlns="http://www.w3.org/2000/svg" xmlns:xlink="http://www.w3.org/1999/xlink" xmlns:inkscape="http://www.inkscape.org/namespaces/inkscape">
    <g inkscape:groupmode="layer" id="abc5c12e-ab8c-4213-8fdc-4d2e93550a75" inkscape:label="Layer 1">
        <path style="fill:none;stroke-width:0.280000;stroke-linecap:round;stroke-linejoin:round;stroke-opacity:1;stroke:#000000;" d="M 271.004266,0.000000 L 289.000001,0.000000 A 1.000000,1.000000 0 0,1 290.000000,1.001581 L 290.000000,149.000000 A 1.000000,1.000000 0 0,1 289.000000,150.000000 L 271.000000,150.000000 A 1.000000,1.000000 0 0,1 270.000000,149.000000 L 270.000000,141.450000 L 279.950000,141.450000 L 279.950000,138.550000 L 270.000000,138.550000 L 270.000000,11.450000 L 280.000000,11.450000 L 280.000000,8.550000 L 270.000000,8.550000 L 270.000000,0.999991 A 1.000000,1.000000 0 0,1 271.004266,0.000000 "/>
        <path style="fill:none;stroke-width:0.280000;stroke-linecap:round;stroke-linejoin:round;stroke-opacity:1;stroke:#000000;" d="M 268.995734,150.000000 L 250.999999,150.000000 A 1.000000,1.000000 0 0,1 250.000000,148.998419 L 250.000000,1.000000 A 1.000000,1.000000 0 0,1 251.000000,0.000000 L 269.000000,0.000000 A 1.000000,1.000000 0 0,1 270.000000,1.000000 L 270.000000,8.550000 L 260.050000,8.550000 L 260.050000,11.450000 L 270.000000,11.450000 L 270.000000,138.550000 L 260.000000,138.550000 L 260.000000,141.450000 L 270.000000,141.450000 L 270.000000,149.000009 A 1.000000,1.000000 0 0,1 268.995734,150.000000 "/>
        <path style="fill:none;stroke-width:0.280000;stroke-linecap:round;stroke-linejoin:round;stroke-opacity:1;stroke:#000000;" d="M 293.000000,145.000000 A 2.000000,2.000000 0 0,0 295.000000,147.000000 A 2.000000,2.000000 0 0,0 297.000000,145.000000 A 2.000000,2.000000 0 0,0 295.000000,143.000000 A 2.000000,2.000000 0 0,0 293.000000,145.000000 "/>
        <path style="fill:none;stroke-width:0.280000;stroke-linecap:round;stroke-linejoin:round;stroke-opacity:1;stroke:#000000;" d="M 407.000000,150.000000 A 3.000000,3.000000 0 0,0 410.000000,147.000000 L 410.000000,143.000000 A 3.000000,3.000000 0 0,0 407.000000,140.000000 L 293.000000,140.000000 A 3.000000,3.000000 0 0,0 290.000000,143.000000 L 290.000000,147.000000 A 3.000000,3.000000 0 0,0 293.000000,150.000000 L 407.000000,150.000000 "/>
        <path style="fill:none;stroke-width:0.280000;stroke-linecap:round;stroke-linejoin:round;stroke-opacity:1;stroke:#000000;" d="M 320.000000,146.450000 L 320.000000,143.550000 L 310.000000,143.550000 L 310.000000,146.450000 L 320.000000,146.450000 "/>
        <path style="fill:none;stroke-width:0.280000;stroke-linecap:round;stroke-linejoin:round;stroke-opacity:1;stroke:#000000;" d="M 340.000000,146.450000 L 340.000000,143.550000 L 330.000000,143.550000 L 330.000000,146.450000 L 340.000000,146.450000 "/>
        <path style="fill:none;stroke-width:0.280000;stroke-linecap:round;stroke-linejoin:round;stroke-opacity:1;stroke:#000000;" d="M 360.000000,146.450000 L 360.000000,143.550000 L 350.000000,143.550000 L 350.000000,146.450000 L 360.000000,146.450000 "/>
        <path style="fill:none;stroke-width:0.280000;stroke-linecap:round;stroke-linejoin:round;stroke-opacity:1;stroke:#000000;" d="M 380.000000,146.450000 L 380.000000,143.550000 L 370.000000,143.550000 L 370.000000,146.450000 L 380.000000,146.450000 "/>
        <path style="fill:none;stroke-width:0.280000;stroke-linecap:round;stroke-linejoin:round;stroke-opacity:1;stroke:#000000;" d="M 400.000000,146.450000 L 400.000000,143.550000 L 390.000000,143.550000 L 390.000000,146.450000 L 400.000000,146.450000 "/>
        <path style="fill:none;stroke-width:0.280000;stroke-linecap:round;stroke-linejoin:round;stroke-opacity:1;stroke:#000000;" d="M 174.611456,121.055728 L 222.244900,25.788840 A 4.000000,4.000000 0 0,0 218.656507,20.000000 L 126.332790,20.000000 A 4.000000,4.000000 0 0,0 122.761139,25.800919 L 170.388544,121.055728 C 171.017995,122.314631 173.982005,122.314631 174.611456,121.055728 "/>
        <path style="fill:none;stroke-width:0.280000;stroke-linecap:round;stroke-linejoin:round;stroke-opacity:1;stroke:#000000;" d="M 172.500000,150.000000 A 20.000000,20.000000 0 0,1 152.574724,131.727243 A 10.000000,10.000000 0 0,0 151.550872,128.101744 L 98.555648,22.111295 A 10.000000,10.000000 0 0,1 97.500000,17.599060 L 97.500000,1.000000 A 1.000000,1.000000 0 0,1 98.500000,0.000000 L 107.500000,0.000000 L 107.500000,10.000000 L 110.400000,10.000000 L 110.400000,0.000000 L 234.600000,0.000000 L 234.600000,10.000000 L 237.500000,10.000000 L 237.500000,0.000000 L 246.500000,0.000000 A 1.000000,1.000000 0 0,1 247.500000,1.000000 L 247.500000,17.639363 A 10.000000,10.000000 0 0,1 246.435537,22.128925 L 193.444068,128.111864 A 9.997710,9.997710 0 0,0 192.428597,131.688496 A 20.000000,20.000000 0 0,1 172.500000,150.000000 "/>
        <path style="fill:none;stroke-width:0.280000;stroke-linecap:round;stroke-linejoin:round;stroke-opacity:1;stroke:#000000;" d="M 172.500000,137.000000 A 2.000000,2.000000 0 0,0 174.500000,135.000000 A 2.000000,2.000000 0 0,0 172.500000,133.000000 A 2.000000,2.000000 0 0,0 170.500000,135.000000 A 2.000000,2.000000 0 0,0 172.500000,137.000000 "/>
        <path style="fill:none;stroke-width:0.280000;stroke-linecap:round;stroke-linejoin:round;stroke-opacity:1;stroke:#000000;" d="M 72.888544,28.944272 L 25.255100,124.211160 A 4.000000,4.000000 0 0,0 28.843493,130.000000 L 121.167210,130.000000 A 4.000000,4.000000 0 0,0 124.738861,124.199081 L 77.111456,28.944272 C 76.482005,27.685369 73.517995,27.685369 72.888544,28.944272 "/>
        <path style="fill:none;stroke-width:0.280000;stroke-linecap:round;stroke-linejoin:round;stroke-opacity:1;stroke:#000000;" d="M 75.000000,13.000000 A 2.000000,2.000000 0 0,0 73.000000,15.000000 A 2.000000,2.000000 0 0,0 75.000000,17.000000 A 2.000000,2.000000 0 0,0 77.000000,15.000000 A 2.000000,2.000000 0 0,0 75.000000,13.000000 "/>
        <path style="fill:none;stroke-width:0.280000;stroke-linecap:round;stroke-linejoin:round;stroke-opacity:1;stroke:#000000;" d="M 75.000000,0.000000 A 20.000000,20.000000 0 0,1 94.925276,18.272757 A 10.000000,10.000000 0 0,0 95.949128,21.898256 L 148.944352,127.888705 A 10.000000,10.000000 0 0,1 150.000000,132.400940 L 150.000000,149.000000 A 1.000000,1.000000 0 0,1 149.000000,150.000000 L 140.000000,150.000000 L 140.000000,140.000000 L 137.100000,140.000000 L 137.100000,150.000000 L 12.900000,150.000000 L 12.900000,140.000000 L 10.000000,140.000000 L 10.000000,150.000000 L 1.000000,150.000000 A 1.000000,1.000000 0 0,1 0.000000,149.000000 L 0.000000,132.360637 A 10.000000,10.000000 0 0,1 1.064463,127.871075 L 54.055932,21.888136 A 9.997710,9.997710 0 0,0 55.071403,18.311504 A 20.000000,20.000000 0 0,1 75.000000,0.000000 "/>
        <path style="fill:none;stroke-width:0.280000;stroke-linecap:round;stroke-linejoin:round;stroke-opacity:1;stroke:#000000;" d="M 293.000000,135.000000 A 2.000000,2.000000 0 0,0 295.000000,137.000000 A 2.000000,2.000000 0 0,0 297.000000,135.000000 A 2.000000,2.000000 0 0,0 295.000000,133.000000 A 2.000000,2.000000 0 0,0 293.000000,135.000000 "/>
        <path style="fill:none;stroke-width:0.280000;stroke-linecap:round;stroke-linejoin:round;stroke-opacity:1;stroke:#000000;" d="M 407.000000,140.000000 A 3.000000,3.000000 0 0,0 410.000000,137.000000 L 410.000000,133.000000 A 3.000000,3.000000 0 0,0 407.000000,130.000000 L 293.000000,130.000000 A 3.000000,3.000000 0 0,0 290.000000,133.000000 L 290.000000,137.000000 A 3.000000,3.000000 0 0,0 293.000000,140.000000 L 407.000000,140.000000 "/>
        <path style="fill:none;stroke-width:0.280000;stroke-linecap:round;stroke-linejoin:round;stroke-opacity:1;stroke:#000000;" d="M 320.000000,136.450000 L 320.000000,133.550000 L 310.000000,133.550000 L 310.000000,136.450000 L 320.000000,136.450000 "/>
        <path style="fill:none;stroke-width:0.280000;stroke-linecap:round;stroke-linejoin:round;stroke-opacity:1;stroke:#000000;" d="M 340.000000,136.450000 L 340.000000,133.550000 L 330.000000,133.550000 L 330.000000,136.450000 L 340.000000,136.450000 "/>
        <path style="fill:none;stroke-width:0.280000;stroke-linecap:round;stroke-linejoin:round;stroke-opacity:1;stroke:#000000;" d="M 360.000000,136.450000 L 360.000000,133.550000 L 350.000000,133.550000 L 350.000000,136.450000 L 360.000000,136.450000 "/>
        <path style="fill:none;stroke-width:0.280000;stroke-linecap:round;stroke-linejoin:round;stroke-opacity:1;stroke:#000000;" d="M 380.000000,136.450000 L 380.000000,133.550000 L 370.000000,133.550000 L 370.000000,136.450000 L 380.000000,136.450000 "/>
        <path style="fill:none;stroke-width:0.280000;stroke-linecap:round;stroke-linejoin:round;stroke-opacity:1;stroke:#000000;" d="M 400.000000,136.450000 L 400.000000,133.550000 L 390.000000,133.550000 L 390.000000,136.450000 L 400.000000,136.450000 "/>
        <path style="fill:none;stroke-width:0.280000;stroke-linecap:round;stroke-linejoin:round;stroke-opacity:1;stroke:#000000;" d="M 393.200000,32.600000 L 396.400000,32.600000 L 396.400000,42.400000 L 393.200000,42.400000 L 393.200000,52.600000 L 396.400000,52.600000 L 396.400000,62.400000 L 393.200000,62.400000 L 393.200000,72.600000 L 396.400000,72.600000 L 396.400000,82.400000 L 393.200000,82.400000 L 393.200000,92.600000 L 396.400000,92.600000 L 396.400000,102.400000 L 393.200000,102.400000 L 393.200000,112.600000 L 396.400000,112.600000 L 396.400000,122.400000 L 393.200000,122.400000 L 393.200000,130.000000 L 293.200000,130.000000 L 293.200000,122.400000 L 290.000000,122.400000 L 290.000000,112.600000 L 293.200000,112.600000 L 293.200000,102.400000 L 290.000000,102.400000 L 290.000000,92.600000 L 293.200000,92.600000 L 293.200000,82.400000 L 290.000000,82.400000 L 290.000000,72.600000 L 293.200000,72.600000 L 293.200000,62.400000 L 290.000000,62.400000 L 290.000000,52.600000 L 293.200000,52.600000 L 293.200000,42.400000 L 290.000000,42.400000 L 290.000000,32.600000 L 293.200000,32.600000 L 293.200000,25.000000 L 393.200000,25.000000 L 393.200000,32.600000 "/>
    </g>
</svg>
