  0
SECTION
  2
HEADER
  9
$ACADVER
  1
AC1009
  9
$DWGCODEPAGE
  3
ansi_1252
  9
$INSBASE
 10
0.0
 20
0.0
 30
0.0
  9
$EXTMIN
 10
0.0
 20
-0.0000000000000142
 30
0.0
  9
$EXTMAX
 10
410.0
 20
150.0
 30
0.0
  9
$LIMMIN
 10
0.0
 20
0.0
  9
$LIMMAX
 10
12.0
 20
9.0
  9
$ORTHOMODE
 70
     0
  9
$REGENMODE
 70
     1
  9
$FILLMODE
 70
     1
  9
$QTEXTMODE
 70
     0
  9
$MIRRTEXT
 70
     1
  9
$DRAGMODE
 70
     2
  9
$LTSCALE
 40
1.0
  9
$OSMODE
 70
    37
  9
$ATTMODE
 70
     1
  9
$TEXTSIZE
 40
0.2
  9
$TRACEWID
 40
0.05
  9
$TEXTSTYLE
  7
STANDARD
  9
$CLAYER
  8
0
  9
$CELTYPE
  6
BYLAYER
  9
$CECOLOR
 62
   256
  9
$DIMSCALE
 40
1.0
  9
$DIMASZ
 40
0.18
  9
$DIMEXO
 40
0.0625
  9
$DIMDLI
 40
0.38
  9
$DIMRND
 40
0.0
  9
$DIMDLE
 40
0.0
  9
$DIMEXE
 40
0.18
  9
$DIMTP
 40
0.0
  9
$DIMTM
 40
0.0
  9
$DIMTXT
 40
0.18
  9
$DIMCEN
 40
0.09
  9
$DIMTSZ
 40
0.0
  9
$DIMTOL
 70
     0
  9
$DIMLIM
 70
     0
  9
$DIMTIH
 70
     1
  9
$DIMTOH
 70
     1
  9
$DIMSE1
 70
     0
  9
$DIMSE2
 70
     0
  9
$DIMTAD
 70
     0
  9
$DIMZIN
 70
     0
  9
$DIMBLK
  1

  9
$DIMASO
 70
     1
  9
$DIMSHO
 70
     1
  9
$DIMPOST
  1

  9
$DIMAPOST
  1

  9
$DIMALT
 70
     0
  9
$DIMALTD
 70
     2
  9
$DIMALTF
 40
25.4
  9
$DIMLFAC
 40
1.0
  9
$DIMTOFL
 70
     0
  9
$DIMTVP
 40
0.0
  9
$DIMTIX
 70
     0
  9
$DIMSOXD
 70
     0
  9
$DIMSAH
 70
     0
  9
$DIMBLK1
  1

  9
$DIMBLK2
  1

  9
$DIMSTYLE
  2
STANDARD
  9
$DIMCLRD
 70
     0
  9
$DIMCLRE
 70
     0
  9
$DIMCLRT
 70
     0
  9
$DIMTFAC
 40
1.0
  9
$DIMGAP
 40
0.09
  9
$LUNITS
 70
     2
  9
$LUPREC
 70
     4
  9
$SKETCHINC
 40
0.1
  9
$FILLETRAD
 40
0.5
  9
$AUNITS
 70
     0
  9
$AUPREC
 70
     0
  9
$MENU
  1
.
  9
$ELEVATION
 40
0.0
  9
$PELEVATION
 40
0.0
  9
$THICKNESS
 40
0.0
  9
$LIMCHECK
 70
     0
  9
$CHAMFERA
 40
0.0
  9
$CHAMFERB
 40
0.0
  9
$SKPOLY
 70
     0
  9
$TDCREATE
 40
2454910.5
  9
$TDUPDATE
 40
2457897.908350162
  9
$TDINDWG
 40
0.0000000116
  9
$TDUSRTIMER
 40
0.0000000116
  9
$USRTIMER
 70
     1
  9
$ANGBASE
 50
0.0
  9
$ANGDIR
 70
     0
  9
$PDMODE
 70
     0
  9
$PDSIZE
 40
0.0
  9
$PLINEWID
 40
0.0
  9
$COORDS
 70
     1
  9
$SPLFRAME
 70
     0
  9
$SPLINETYPE
 70
     6
  9
$SPLINESEGS
 70
     8
  9
$ATTDIA
 70
     0
  9
$ATTREQ
 70
     1
  9
$HANDLING
 70
     1
  9
$HANDSEED
  5
1AB
  9
$SURFTAB1
 70
     6
  9
$SURFTAB2
 70
     6
  9
$SURFTYPE
 70
     6
  9
$SURFU
 70
     6
  9
$SURFV
 70
     6
  9
$UCSNAME
  2

  9
$UCSORG
 10
0.0
 20
0.0
 30
0.0
  9
$UCSXDIR
 10
1.0
 20
0.0
 30
0.0
  9
$UCSYDIR
 10
0.0
 20
1.0
 30
0.0
  9
$PUCSNAME
  2

  9
$PUCSORG
 10
0.0
 20
0.0
 30
0.0
  9
$PUCSXDIR
 10
1.0
 20
0.0
 30
0.0
  9
$PUCSYDIR
 10
0.0
 20
1.0
 30
0.0
  9
$USERI1
 70
     0
  9
$USERI2
 70
     0
  9
$USERI3
 70
     0
  9
$USERI4
 70
     0
  9
$USERI5
 70
     0
  9
$USERR1
 40
0.0
  9
$USERR2
 40
0.0
  9
$USERR3
 40
0.0
  9
$USERR4
 40
0.0
  9
$USERR5
 40
0.0
  9
$WORLDVIEW
 70
     1
  9
$SHADEDGE
 70
     3
  9
$SHADEDIF
 70
    70
  9
$TILEMODE
 70
     1
  9
$MAXACTVP
 70
    64
  9
$PLIMCHECK
 70
     0
  9
$PEXTMIN
 10
1.000000000000000E+20
 20
1.000000000000000E+20
 30
1.000000000000000E+20
  9
$PEXTMAX
 10
-1.000000000000000E+20
 20
-1.000000000000000E+20
 30
-1.000000000000000E+20
  9
$PLIMMIN
 10
0.0
 20
0.0
  9
$PLIMMAX
 10
12.0
 20
9.0
  9
$UNITMODE
 70
     0
  9
$VISRETAIN
 70
     1
  9
$PLINEGEN
 70
     0
  9
$PSLTSCALE
 70
     1
  0
ENDSEC
  0
SECTION
  2
TABLES
  0
TABLE
  2
VPORT
 70
     1
  0
VPORT
  2
*ACTIVE
 70
     0
 10
0.0
 20
0.0
 11
1.0
 21
1.0
 12
10.42990654205607
 22
4.5
 13
0.0
 23
0.0
 14
0.5
 24
0.5
 15
0.5
 25
0.5
 16
0.0
 26
0.0
 36
1.0
 17
0.0
 27
0.0
 37
0.0
 40
9.0
 41
1.972972972850329
 42
50.0
 43
0.0
 44
0.0
 50
0.0
 51
0.0
 71
     0
 72
   100
 73
     1
 74
     3
 75
     0
 76
     0
 77
     0
 78
     0
  0
ENDTAB
  0
TABLE
  2
LTYPE
 70
     2
  0
LTYPE
  2
CONTINUOUS
 70
     0
  3
Solid line
 72
    65
 73
     0
 40
0.0
  0
LTYPE
  2
CONTINUOUS2
 70
     0
  3
Solid Line
 72
    65
 73
     0
 40
0.0
  0
ENDTAB
  0
TABLE
  2
LAYER
 70
     2
  0
LAYER
  2
0
 70
     0
 62
     7
  6
CONTINUOUS
  0
LAYER
  2
LAYER_1
 70
     0
 62
    18
  6
CONTINUOUS
  0
ENDTAB
  0
TABLE
  2
STYLE
 70
     1
  0
STYLE
  2
STANDARD
 70
     0
 40
0.0
 41
1.0
 50
0.0
 71
     0
 42
0.2
  3
txt
  4

  0
ENDTAB
  0
TABLE
  2
VIEW
 70
     0
  0
ENDTAB
  0
TABLE
  2
UCS
 70
     0
  0
ENDTAB
  0
TABLE
  2
APPID
 70
     1
  0
APPID
  2
ACAD
 70
     0
  0
ENDTAB
  0
TABLE
  2
DIMSTYLE
 70
     1
  0
DIMSTYLE
  2
STANDARD
 70
     0
  3

  4

  5

  6

  7

 40
1.0
 41
0.18
 42
0.0625
 43
0.38
 44
0.18
 45
0.0
 46
0.0
 47
0.0
 48
0.0
140
0.18
141
0.09
142
0.0
143
25.4
144
1.0
145
0.0
146
1.0
147
0.09
 71
     0
 72
     0
 73
     1
 74
     1
 75
     0
 76
     0
 77
     0
 78
     0
170
     0
171
     2
172
     0
173
     0
174
     0
175
     0
176
     0
177
     0
178
     0
  0
ENDTAB
  0
ENDSEC
  0
SECTION
  2
BLOCKS
  0
BLOCK
  8
0
  2
$MODEL_SPACE
 70
     0
 10
0.0
 20
0.0
 30
0.0
  3
$MODEL_SPACE
  1

  0
ENDBLK
  5
21
  8
0
  0
BLOCK
 67
     1
  8
0
  2
$PAPER_SPACE
 70
     0
 10
0.0
 20
0.0
 30
0.0
  3
$PAPER_SPACE
  1

  0
ENDBLK
  5
1D
 67
     1
  8
0
  0
ENDSEC
  0
SECTION
  2
ENTITIES
  0
POLYLINE
  5
70
  8
LAYER_1
 66
     1
 10
0.0
 20
0.0
 30
0.0
 70
     1
  0
VERTEX
  5
8E
  8
LAYER_1
 10
271.0042661347557
 20
150.0
 30
0.0
  0
VERTEX
  5
8F
  8
LAYER_1
 10
289.0000012502206
 20
150.0
 30
0.0
 42
-0.4146767827870479
  0
VERTEX
  5
90
  8
LAYER_1
 10
290.0
 20
148.9984187263077
 30
0.0
  0
VERTEX
  5
91
  8
LAYER_1
 10
290.0
 20
1.000000000000057
 30
0.0
 42
-0.4142135623730806
  0
VERTEX
  5
92
  8
LAYER_1
 10
289.0
 20
0.0
 30
0.0
  0
VERTEX
  5
93
  8
LAYER_1
 10
271.0
 20
0.0
 30
0.0
 42
-0.4142135623731008
  0
VERTEX
  5
94
  8
LAYER_1
 10
270.0
 20
0.9999999999999997
 30
0.0
  0
VERTEX
  5
95
  8
LAYER_1
 10
270.0
 20
8.550000000000015
 30
0.0
  0
VERTEX
  5
96
  8
LAYER_1
 10
279.9499999999999
 20
8.550000000000015
 30
0.0
  0
VERTEX
  5
97
  8
LAYER_1
 10
279.9499999999999
 20
11.45000000000002
 30
0.0
  0
VERTEX
  5
98
  8
LAYER_1
 10
270.0
 20
11.45000000000002
 30
0.0
  0
VERTEX
  5
99
  8
LAYER_1
 10
270.0
 20
138.55
 30
0.0
  0
VERTEX
  5
9A
  8
LAYER_1
 10
280.0
 20
138.55
 30
0.0
  0
VERTEX
  5
9B
  8
LAYER_1
 10
280.0
 20
141.45
 30
0.0
  0
VERTEX
  5
9C
  8
LAYER_1
 10
270.0
 20
141.45
 30
0.0
  0
VERTEX
  5
9D
  8
LAYER_1
 10
270.0
 20
149.0000091
 30
0.0
 42
-0.41546364083409
  0
SEQEND
  5
194
  8
LAYER_1
  0
POLYLINE
  5
71
  8
LAYER_1
 66
     1
 10
0.0
 20
0.0
 30
0.0
 70
     1
  0
VERTEX
  5
9E
  8
LAYER_1
 10
268.9957338652445
 20
0.0
 30
0.0
  0
VERTEX
  5
9F
  8
LAYER_1
 10
250.9999987497794
 20
0.0
 30
0.0
 42
-0.4146767827870479
  0
VERTEX
  5
A0
  8
LAYER_1
 10
250.0
 20
1.001581273692267
 30
0.0
  0
VERTEX
  5
A1
  8
LAYER_1
 10
250.0
 20
148.9999999999999
 30
0.0
 42
-0.4142135623730806
  0
VERTEX
  5
A2
  8
LAYER_1
 10
251.0
 20
150.0
 30
0.0
  0
VERTEX
  5
A3
  8
LAYER_1
 10
269.0
 20
150.0
 30
0.0
 42
-0.4142135623731008
  0
VERTEX
  5
A4
  8
LAYER_1
 10
270.0
 20
149.0
 30
0.0
  0
VERTEX
  5
A5
  8
LAYER_1
 10
270.0
 20
141.45
 30
0.0
  0
VERTEX
  5
A6
  8
LAYER_1
 10
260.0500000000001
 20
141.45
 30
0.0
  0
VERTEX
  5
A7
  8
LAYER_1
 10
260.0500000000001
 20
138.55
 30
0.0
  0
VERTEX
  5
A8
  8
LAYER_1
 10
270.0
 20
138.55
 30
0.0
  0
VERTEX
  5
A9
  8
LAYER_1
 10
270.0
 20
11.44999999999999
 30
0.0
  0
VERTEX
  5
AA
  8
LAYER_1
 10
260.0
 20
11.44999999999999
 30
0.0
  0
VERTEX
  5
AB
  8
LAYER_1
 10
260.0
 20
8.549999999999955
 30
0.0
  0
VERTEX
  5
AC
  8
LAYER_1
 10
270.0
 20
8.549999999999955
 30
0.0
  0
VERTEX
  5
AD
  8
LAYER_1
 10
270.0
 20
0.9999908999999718
 30
0.0
 42
-0.41546364083409
  0
SEQEND
  5
195
  8
LAYER_1
  0
POLYLINE
  5
72
  8
LAYER_1
 66
     1
 10
0.0
 20
0.0
 30
0.0
 70
     1
  0
VERTEX
  5
AE
  8
LAYER_1
 10
293.0
 20
5.0
 30
0.0
 42
0.4142135623730951
  0
VERTEX
  5
AF
  8
LAYER_1
 10
295.0
 20
3.0
 30
0.0
 42
0.4142135623730951
  0
VERTEX
  5
B0
  8
LAYER_1
 10
297.0
 20
5.0
 30
0.0
 42
0.4142135623730951
  0
VERTEX
  5
B1
  8
LAYER_1
 10
295.0
 20
7.0
 30
0.0
 42
0.4142135623730951
  0
SEQEND
  5
196
  8
LAYER_1
  0
POLYLINE
  5
73
  8
LAYER_1
 66
     1
 10
0.0
 20
0.0
 30
0.0
 70
     1
  0
VERTEX
  5
B2
  8
LAYER_1
 10
406.9999999999999
 20
0.0
 30
0.0
 42
0.4142135623730951
  0
VERTEX
  5
B3
  8
LAYER_1
 10
409.9999999999999
 20
3.0
 30
0.0
  0
VERTEX
  5
B4
  8
LAYER_1
 10
409.9999999999999
 20
7.0
 30
0.0
 42
0.4142135623730951
  0
VERTEX
  5
B5
  8
LAYER_1
 10
406.9999999999999
 20
10.0
 30
0.0
  0
VERTEX
  5
B6
  8
LAYER_1
 10
293.0
 20
10.0
 30
0.0
 42
0.4142135623730951
  0
VERTEX
  5
B7
  8
LAYER_1
 10
290.0
 20
7.0
 30
0.0
  0
VERTEX
  5
B8
  8
LAYER_1
 10
290.0
 20
3.0
 30
0.0
 42
0.4142135623730951
  0
VERTEX
  5
B9
  8
LAYER_1
 10
293.0
 20
0.0
 30
0.0
  0
SEQEND
  5
197
  8
LAYER_1
  0
POLYLINE
  5
74
  8
LAYER_1
 66
     1
 10
0.0
 20
0.0
 30
0.0
 70
     1
  0
VERTEX
  5
BA
  8
LAYER_1
 10
319.9999999999999
 20
3.549999999999955
 30
0.0
  0
VERTEX
  5
BB
  8
LAYER_1
 10
319.9999999999999
 20
6.449999999999989
 30
0.0
  0
VERTEX
  5
BC
  8
LAYER_1
 10
309.9999999999999
 20
6.449999999999989
 30
0.0
  0
VERTEX
  5
BD
  8
LAYER_1
 10
309.9999999999999
 20
3.549999999999955
 30
0.0
  0
SEQEND
  5
198
  8
LAYER_1
  0
POLYLINE
  5
75
  8
LAYER_1
 66
     1
 10
0.0
 20
0.0
 30
0.0
 70
     1
  0
VERTEX
  5
BE
  8
LAYER_1
 10
339.9999999999999
 20
3.549999999999955
 30
0.0
  0
VERTEX
  5
BF
  8
LAYER_1
 10
339.9999999999999
 20
6.449999999999989
 30
0.0
  0
VERTEX
  5
C0
  8
LAYER_1
 10
329.9999999999999
 20
6.449999999999989
 30
0.0
  0
VERTEX
  5
C1
  8
LAYER_1
 10
329.9999999999999
 20
3.549999999999955
 30
0.0
  0
SEQEND
  5
199
  8
LAYER_1
  0
POLYLINE
  5
76
  8
LAYER_1
 66
     1
 10
0.0
 20
0.0
 30
0.0
 70
     1
  0
VERTEX
  5
C2
  8
LAYER_1
 10
359.9999999999999
 20
3.549999999999955
 30
0.0
  0
VERTEX
  5
C3
  8
LAYER_1
 10
359.9999999999999
 20
6.449999999999989
 30
0.0
  0
VERTEX
  5
C4
  8
LAYER_1
 10
349.9999999999999
 20
6.449999999999989
 30
0.0
  0
VERTEX
  5
C5
  8
LAYER_1
 10
349.9999999999999
 20
3.549999999999955
 30
0.0
  0
SEQEND
  5
19A
  8
LAYER_1
  0
POLYLINE
  5
77
  8
LAYER_1
 66
     1
 10
0.0
 20
0.0
 30
0.0
 70
     1
  0
VERTEX
  5
C6
  8
LAYER_1
 10
379.9999999999999
 20
3.549999999999955
 30
0.0
  0
VERTEX
  5
C7
  8
LAYER_1
 10
379.9999999999999
 20
6.449999999999989
 30
0.0
  0
VERTEX
  5
C8
  8
LAYER_1
 10
369.9999999999999
 20
6.449999999999989
 30
0.0
  0
VERTEX
  5
C9
  8
LAYER_1
 10
369.9999999999999
 20
3.549999999999955
 30
0.0
  0
SEQEND
  5
19B
  8
LAYER_1
  0
POLYLINE
  5
78
  8
LAYER_1
 66
     1
 10
0.0
 20
0.0
 30
0.0
 70
     1
  0
VERTEX
  5
CA
  8
LAYER_1
 10
399.9999999999999
 20
3.549999999999955
 30
0.0
  0
VERTEX
  5
CB
  8
LAYER_1
 10
399.9999999999999
 20
6.449999999999989
 30
0.0
  0
VERTEX
  5
CC
  8
LAYER_1
 10
389.9999999999999
 20
6.449999999999989
 30
0.0
  0
VERTEX
  5
CD
  8
LAYER_1
 10
389.9999999999999
 20
3.549999999999955
 30
0.0
  0
SEQEND
  5
19C
  8
LAYER_1
  0
POLYLINE
  5
79
  8
LAYER_1
 66
     1
 10
0.0
 20
0.0
 30
0.0
 70
     1
  0
VERTEX
  5
CE
  8
LAYER_1
 10
174.6114561800017
 20
28.94427190999916
 30
0.0
  0
VERTEX
  5
CF
  8
LAYER_1
 10
222.244900169295
 20
124.2111598885857
 30
0.0
 42
0.5584122248615022
  0
VERTEX
  5
D0
  8
LAYER_1
 10
218.6565066272076
 20
130.0
 30
0.0
  0
VERTEX
  5
D1
  8
LAYER_1
 10
126.3327902592635
 20
130.0
 30
0.0
 42
0.5586430756351757
  0
VERTEX
  5
D2
  8
LAYER_1
 10
122.7611393086374
 20
124.199080932721
 30
0.0
  0
VERTEX
  5
D3
  8
LAYER_1
 10
170.3885438199983
 20
28.94427190999916
 30
0.0
  0
VERTEX
  5
D4
  8
LAYER_1
 10
170.4542519462149
 20
28.82993791794036
 30
0.0
  0
VERTEX
  5
D5
  8
LAYER_1
 10
170.5327841792121
 20
28.722980312466
 30
0.0
  0
VERTEX
  5
D6
  8
LAYER_1
 10
170.623285578538
 20
28.62339909357608
 30
0.0
  0
VERTEX
  5
D7
  8
LAYER_1
 10
170.7249012037405
 20
28.53119426127059
 30
0.0
  0
VERTEX
  5
D8
  8
LAYER_1
 10
170.8367761143675
 20
28.44636581554954
 30
0.0
  0
VERTEX
  5
D9
  8
LAYER_1
 10
170.958055369967
 20
28.36891375641294
 30
0.0
  0
VERTEX
  5
DA
  8
LAYER_1
 10
171.087884030087
 20
28.29883808386077
 30
0.0
  0
VERTEX
  5
DB
  8
LAYER_1
 10
171.2254071542754
 20
28.23613879789304
 30
0.0
  0
VERTEX
  5
DC
  8
LAYER_1
 10
171.3697698020802
 20
28.18081589850975
 30
0.0
  0
VERTEX
  5
DD
  8
LAYER_1
 10
171.5201170330493
 20
28.1328693857109
 30
0.0
  0
VERTEX
  5
DE
  8
LAYER_1
 10
171.6755939067307
 20
28.09229925949649
 30
0.0
  0
VERTEX
  5
DF
  8
LAYER_1
 10
171.8353454826723
 20
28.05910551986651
 30
0.0
  0
VERTEX
  5
E0
  8
LAYER_1
 10
171.9985168204221
 20
28.03328816682097
 30
0.0
  0
VERTEX
  5
E1
  8
LAYER_1
 10
172.164252979528
 20
28.01484720035988
 30
0.0
  0
VERTEX
  5
E2
  8
LAYER_1
 10
172.5000000000001
 20
28.00009442719101
 30
0.0
  0
VERTEX
  5
E3
  8
LAYER_1
 10
172.8357470204721
 20
28.01484720035988
 30
0.0
  0
VERTEX
  5
E4
  8
LAYER_1
 10
173.0014831795781
 20
28.03328816682097
 30
0.0
  0
VERTEX
  5
E5
  8
LAYER_1
 10
173.1646545173278
 20
28.05910551986651
 30
0.0
  0
VERTEX
  5
E6
  8
LAYER_1
 10
173.3244060932694
 20
28.09229925949649
 30
0.0
  0
VERTEX
  5
E7
  8
LAYER_1
 10
173.4798829669508
 20
28.1328693857109
 30
0.0
  0
VERTEX
  5
E8
  8
LAYER_1
 10
173.6302301979199
 20
28.18081589850975
 30
0.0
  0
VERTEX
  5
E9
  8
LAYER_1
 10
173.7745928457247
 20
28.23613879789304
 30
0.0
  0
VERTEX
  5
EA
  8
LAYER_1
 10
173.9121159699131
 20
28.29883808386077
 30
0.0
  0
VERTEX
  5
EB
  8
LAYER_1
 10
174.0419446300331
 20
28.36891375641294
 30
0.0
  0
VERTEX
  5
EC
  8
LAYER_1
 10
174.1632238856326
 20
28.44636581554954
 30
0.0
  0
VERTEX
  5
ED
  8
LAYER_1
 10
174.2750987962596
 20
28.53119426127059
 30
0.0
  0
VERTEX
  5
EE
  8
LAYER_1
 10
174.3767144214621
 20
28.62339909357608
 30
0.0
  0
VERTEX
  5
EF
  8
LAYER_1
 10
174.4672158207879
 20
28.722980312466
 30
0.0
  0
VERTEX
  5
F0
  8
LAYER_1
 10
174.5457480537852
 20
28.82993791794036
 30
0.0
  0
SEQEND
  5
19D
  8
LAYER_1
  0
POLYLINE
  5
7A
  8
LAYER_1
 66
     1
 10
0.0
 20
0.0
 30
0.0
 70
     1
  0
VERTEX
  5
F1
  8
LAYER_1
 10
172.5
 20
-0.0000000000000142
 30
0.0
 42
-0.3891080145179967
  0
VERTEX
  5
F2
  8
LAYER_1
 10
152.5747238059031
 20
18.27275693981595
 30
0.0
 42
0.0950329663506754
  0
VERTEX
  5
F3
  8
LAYER_1
 10
151.550872164846
 20
21.89825567030807
 30
0.0
  0
VERTEX
  5
F4
  8
LAYER_1
 10
98.5556476921777
 20
127.8887046156446
 30
0.0
 42
-0.1174500149141589
  0
VERTEX
  5
F5
  8
LAYER_1
 10
97.49999999999997
 20
132.4009398225797
 30
0.0
  0
VERTEX
  5
F6
  8
LAYER_1
 10
97.49999999999997
 20
148.9999999999999
 30
0.0
 42
-0.4142135623730522
  0
VERTEX
  5
F7
  8
LAYER_1
 10
98.49999999999997
 20
150.0
 30
0.0
  0
VERTEX
  5
F8
  8
LAYER_1
 10
107.5
 20
150.0
 30
0.0
  0
VERTEX
  5
F9
  8
LAYER_1
 10
107.5
 20
140.0
 30
0.0
  0
VERTEX
  5
FA
  8
LAYER_1
 10
110.4
 20
140.0
 30
0.0
  0
VERTEX
  5
FB
  8
LAYER_1
 10
110.4
 20
150.0
 30
0.0
  0
VERTEX
  5
FC
  8
LAYER_1
 10
234.6000000000001
 20
150.0
 30
0.0
  0
VERTEX
  5
FD
  8
LAYER_1
 10
234.6000000000001
 20
140.0
 30
0.0
  0
VERTEX
  5
FE
  8
LAYER_1
 10
237.5000000000001
 20
140.0
 30
0.0
  0
VERTEX
  5
FF
  8
LAYER_1
 10
237.5000000000001
 20
150.0
 30
0.0
  0
VERTEX
  5
100
  8
LAYER_1
 10
246.5000000000001
 20
150.0
 30
0.0
 42
-0.4142135623731151
  0
VERTEX
  5
101
  8
LAYER_1
 10
247.5000000000001
 20
149.0
 30
0.0
  0
VERTEX
  5
102
  8
LAYER_1
 10
247.5000000000001
 20
132.3606372917372
 30
0.0
 42
-0.1169277843063693
  0
VERTEX
  5
103
  8
LAYER_1
 10
246.4355373313201
 20
127.8710746626402
 30
0.0
  0
VERTEX
  5
104
  8
LAYER_1
 10
193.4440679001004
 20
21.88813580020071
 30
0.0
 42
0.0937889313278115
  0
VERTEX
  5
105
  8
LAYER_1
 10
192.4285970825458
 20
18.31150412451008
 30
0.0
 42
-0.3896678363137486
  0
SEQEND
  5
19E
  8
LAYER_1
  0
POLYLINE
  5
7B
  8
LAYER_1
 66
     1
 10
0.0
 20
0.0
 30
0.0
 70
     1
  0
VERTEX
  5
106
  8
LAYER_1
 10
172.5
 20
12.99999999999999
 30
0.0
 42
0.4142135623730951
  0
VERTEX
  5
107
  8
LAYER_1
 10
174.5
 20
14.99999999999999
 30
0.0
 42
0.4142135623730951
  0
VERTEX
  5
108
  8
LAYER_1
 10
172.5
 20
16.99999999999999
 30
0.0
 42
0.4142135623730951
  0
VERTEX
  5
109
  8
LAYER_1
 10
170.5
 20
14.99999999999999
 30
0.0
 42
0.4142135623730951
  0
SEQEND
  5
19F
  8
LAYER_1
  0
POLYLINE
  5
7C
  8
LAYER_1
 66
     1
 10
0.0
 20
0.0
 30
0.0
 70
     1
  0
VERTEX
  5
10A
  8
LAYER_1
 10
72.88854381999832
 20
121.0557280900008
 30
0.0
  0
VERTEX
  5
10B
  8
LAYER_1
 10
25.25509983070502
 20
25.78884011141425
 30
0.0
 42
0.5584122248615022
  0
VERTEX
  5
10C
  8
LAYER_1
 10
28.8434933727925
 20
20.0
 30
0.0
  0
VERTEX
  5
10D
  8
LAYER_1
 10
121.1672097407365
 20
20.0
 30
0.0
 42
0.5586430756351757
  0
VERTEX
  5
10E
  8
LAYER_1
 10
124.7388606913626
 20
25.80091906727896
 30
0.0
  0
VERTEX
  5
10F
  8
LAYER_1
 10
77.11145618000168
 20
121.0557280900008
 30
0.0
  0
VERTEX
  5
110
  8
LAYER_1
 10
77.04574805378515
 20
121.1700620820596
 30
0.0
  0
VERTEX
  5
111
  8
LAYER_1
 10
76.96721582078791
 20
121.277019687534
 30
0.0
  0
VERTEX
  5
112
  8
LAYER_1
 10
76.87671442146204
 20
121.3766009064239
 30
0.0
  0
VERTEX
  5
113
  8
LAYER_1
 10
76.77509879625956
 20
121.4688057387294
 30
0.0
  0
VERTEX
  5
114
  8
LAYER_1
 10
76.66322388563253
 20
121.5536341844505
 30
0.0
  0
VERTEX
  5
115
  8
LAYER_1
 10
76.541944630033
 20
121.6310862435871
 30
0.0
  0
VERTEX
  5
116
  8
LAYER_1
 10
76.41211596991302
 20
121.7011619161393
 30
0.0
  0
VERTEX
  5
117
  8
LAYER_1
 10
76.27459284572461
 20
121.763861202107
 30
0.0
  0
VERTEX
  5
118
  8
LAYER_1
 10
76.13023019791984
 20
121.8191841014903
 30
0.0
  0
VERTEX
  5
119
  8
LAYER_1
 10
75.97988296695075
 20
121.8671306142891
 30
0.0
  0
VERTEX
  5
11A
  8
LAYER_1
 10
75.82440609326939
 20
121.9077007405035
 30
0.0
  0
VERTEX
  5
11B
  8
LAYER_1
 10
75.66465451732779
 20
121.9408944801335
 30
0.0
  0
VERTEX
  5
11C
  8
LAYER_1
 10
75.501483179578
 20
121.966711833179
 30
0.0
  0
VERTEX
  5
11D
  8
LAYER_1
 10
75.33574702047208
 20
121.9851527996401
 30
0.0
  0
VERTEX
  5
11E
  8
LAYER_1
 10
75.0
 20
121.999905572809
 30
0.0
  0
VERTEX
  5
11F
  8
LAYER_1
 10
74.66425297952792
 20
121.9851527996401
 30
0.0
  0
VERTEX
  5
120
  8
LAYER_1
 10
74.498516820422
 20
121.966711833179
 30
0.0
  0
VERTEX
  5
121
  8
LAYER_1
 10
74.33534548267221
 20
121.9408944801335
 30
0.0
  0
VERTEX
  5
122
  8
LAYER_1
 10
74.17559390673061
 20
121.9077007405035
 30
0.0
  0
VERTEX
  5
123
  8
LAYER_1
 10
74.02011703304925
 20
121.8671306142891
 30
0.0
  0
VERTEX
  5
124
  8
LAYER_1
 10
73.86976980208016
 20
121.8191841014903
 30
0.0
  0
VERTEX
  5
125
  8
LAYER_1
 10
73.72540715427539
 20
121.763861202107
 30
0.0
  0
VERTEX
  5
126
  8
LAYER_1
 10
73.58788403008698
 20
121.7011619161393
 30
0.0
  0
VERTEX
  5
127
  8
LAYER_1
 10
73.458055369967
 20
121.6310862435871
 30
0.0
  0
VERTEX
  5
128
  8
LAYER_1
 10
73.33677611436747
 20
121.5536341844505
 30
0.0
  0
VERTEX
  5
129
  8
LAYER_1
 10
73.22490120374044
 20
121.4688057387294
 30
0.0
  0
VERTEX
  5
12A
  8
LAYER_1
 10
73.12328557853796
 20
121.3766009064239
 30
0.0
  0
VERTEX
  5
12B
  8
LAYER_1
 10
73.03278417921209
 20
121.277019687534
 30
0.0
  0
VERTEX
  5
12C
  8
LAYER_1
 10
72.95425194621485
 20
121.1700620820596
 30
0.0
  0
SEQEND
  5
1A0
  8
LAYER_1
  0
POLYLINE
  5
7D
  8
LAYER_1
 66
     1
 10
0.0
 20
0.0
 30
0.0
 70
     1
  0
VERTEX
  5
12D
  8
LAYER_1
 10
75.0
 20
137.0
 30
0.0
 42
0.4142135623730951
  0
VERTEX
  5
12E
  8
LAYER_1
 10
73.0
 20
135.0
 30
0.0
 42
0.4142135623730951
  0
VERTEX
  5
12F
  8
LAYER_1
 10
75.0
 20
133.0
 30
0.0
 42
0.4142135623730951
  0
VERTEX
  5
130
  8
LAYER_1
 10
77.0
 20
135.0
 30
0.0
 42
0.4142135623730951
  0
SEQEND
  5
1A1
  8
LAYER_1
  0
POLYLINE
  5
7E
  8
LAYER_1
 66
     1
 10
0.0
 20
0.0
 30
0.0
 70
     1
  0
VERTEX
  5
131
  8
LAYER_1
 10
75.0
 20
150.0
 30
0.0
 42
-0.3891080145179967
  0
VERTEX
  5
132
  8
LAYER_1
 10
94.92527619409694
 20
131.727243060184
 30
0.0
 42
0.0950329663506754
  0
VERTEX
  5
133
  8
LAYER_1
 10
95.94912783515404
 20
128.1017443296919
 30
0.0
  0
VERTEX
  5
134
  8
LAYER_1
 10
148.9443523078223
 20
22.11129538435544
 30
0.0
 42
-0.1174500149141589
  0
VERTEX
  5
135
  8
LAYER_1
 10
150.0
 20
17.59906017742029
 30
0.0
  0
VERTEX
  5
136
  8
LAYER_1
 10
150.0
 20
1.000000000000057
 30
0.0
 42
-0.4142135623730522
  0
VERTEX
  5
137
  8
LAYER_1
 10
149.0
 20
0.0
 30
0.0
  0
VERTEX
  5
138
  8
LAYER_1
 10
140.0
 20
0.0
 30
0.0
  0
VERTEX
  5
139
  8
LAYER_1
 10
140.0
 20
10.0
 30
0.0
  0
VERTEX
  5
13A
  8
LAYER_1
 10
137.1
 20
10.0
 30
0.0
  0
VERTEX
  5
13B
  8
LAYER_1
 10
137.1
 20
0.0
 30
0.0
  0
VERTEX
  5
13C
  8
LAYER_1
 10
12.9
 20
0.0
 30
0.0
  0
VERTEX
  5
13D
  8
LAYER_1
 10
12.9
 20
10.0
 30
0.0
  0
VERTEX
  5
13E
  8
LAYER_1
 10
10.0
 20
10.0
 30
0.0
  0
VERTEX
  5
13F
  8
LAYER_1
 10
10.0
 20
0.0
 30
0.0
  0
VERTEX
  5
140
  8
LAYER_1
 10
0.9999999999999716
 20
0.0
 30
0.0
 42
-0.4142135623731151
  0
VERTEX
  5
141
  8
LAYER_1
 10
0.0
 20
1.0
 30
0.0
  0
VERTEX
  5
142
  8
LAYER_1
 10
0.0
 20
17.63936270826276
 30
0.0
 42
-0.1169277843063693
  0
VERTEX
  5
143
  8
LAYER_1
 10
1.064462668679905
 20
22.12892533735981
 30
0.0
  0
VERTEX
  5
144
  8
LAYER_1
 10
54.05593209989964
 20
128.1118641997993
 30
0.0
 42
0.0937889313278115
  0
VERTEX
  5
145
  8
LAYER_1
 10
55.07140291745419
 20
131.6884958754899
 30
0.0
 42
-0.3896678363137486
  0
SEQEND
  5
1A2
  8
LAYER_1
  0
POLYLINE
  5
7F
  8
LAYER_1
 66
     1
 10
0.0
 20
0.0
 30
0.0
 70
     1
  0
VERTEX
  5
146
  8
LAYER_1
 10
293.0000000000001
 20
14.99999999999999
 30
0.0
 42
0.4142135623730951
  0
VERTEX
  5
147
  8
LAYER_1
 10
295.0
 20
13.00000000000001
 30
0.0
 42
0.4142135623730951
  0
VERTEX
  5
148
  8
LAYER_1
 10
297.0000000000001
 20
14.99999999999999
 30
0.0
 42
0.4142135623730951
  0
VERTEX
  5
149
  8
LAYER_1
 10
295.0
 20
16.99999999999999
 30
0.0
 42
0.4142135623730951
  0
SEQEND
  5
1A3
  8
LAYER_1
  0
POLYLINE
  5
80
  8
LAYER_1
 66
     1
 10
0.0
 20
0.0
 30
0.0
 70
     1
  0
VERTEX
  5
14A
  8
LAYER_1
 10
406.9999999999999
 20
9.999999999999986
 30
0.0
 42
0.4142135623730951
  0
VERTEX
  5
14B
  8
LAYER_1
 10
410.0
 20
12.99999999999999
 30
0.0
  0
VERTEX
  5
14C
  8
LAYER_1
 10
409.9999999999999
 20
16.99999999999999
 30
0.0
 42
0.4142135623730951
  0
VERTEX
  5
14D
  8
LAYER_1
 10
406.9999999999999
 20
19.99999999999999
 30
0.0
  0
VERTEX
  5
14E
  8
LAYER_1
 10
293.0
 20
20.00000000000001
 30
0.0
 42
0.4142135623730951
  0
VERTEX
  5
14F
  8
LAYER_1
 10
290.0
 20
16.99999999999996
 30
0.0
  0
VERTEX
  5
150
  8
LAYER_1
 10
290.0
 20
12.99999999999999
 30
0.0
 42
0.4142135623730951
  0
VERTEX
  5
151
  8
LAYER_1
 10
293.0
 20
9.999999999999986
 30
0.0
  0
SEQEND
  5
1A4
  8
LAYER_1
  0
POLYLINE
  5
81
  8
LAYER_1
 66
     1
 10
0.0
 20
0.0
 30
0.0
 70
     1
  0
VERTEX
  5
152
  8
LAYER_1
 10
319.9999999999999
 20
13.54999999999997
 30
0.0
  0
VERTEX
  5
153
  8
LAYER_1
 10
319.9999999999999
 20
16.44999999999997
 30
0.0
  0
VERTEX
  5
154
  8
LAYER_1
 10
309.9999999999999
 20
16.44999999999997
 30
0.0
  0
VERTEX
  5
155
  8
LAYER_1
 10
309.9999999999999
 20
13.54999999999997
 30
0.0
  0
SEQEND
  5
1A5
  8
LAYER_1
  0
POLYLINE
  5
82
  8
LAYER_1
 66
     1
 10
0.0
 20
0.0
 30
0.0
 70
     1
  0
VERTEX
  5
156
  8
LAYER_1
 10
339.9999999999999
 20
13.54999999999994
 30
0.0
  0
VERTEX
  5
157
  8
LAYER_1
 10
339.9999999999999
 20
16.44999999999997
 30
0.0
  0
VERTEX
  5
158
  8
LAYER_1
 10
329.9999999999999
 20
16.44999999999997
 30
0.0
  0
VERTEX
  5
159
  8
LAYER_1
 10
329.9999999999999
 20
13.54999999999994
 30
0.0
  0
SEQEND
  5
1A6
  8
LAYER_1
  0
POLYLINE
  5
83
  8
LAYER_1
 66
     1
 10
0.0
 20
0.0
 30
0.0
 70
     1
  0
VERTEX
  5
15A
  8
LAYER_1
 10
359.9999999999999
 20
13.54999999999994
 30
0.0
  0
VERTEX
  5
15B
  8
LAYER_1
 10
359.9999999999999
 20
16.44999999999997
 30
0.0
  0
VERTEX
  5
15C
  8
LAYER_1
 10
349.9999999999999
 20
16.44999999999997
 30
0.0
  0
VERTEX
  5
15D
  8
LAYER_1
 10
349.9999999999999
 20
13.54999999999994
 30
0.0
  0
SEQEND
  5
1A7
  8
LAYER_1
  0
POLYLINE
  5
84
  8
LAYER_1
 66
     1
 10
0.0
 20
0.0
 30
0.0
 70
     1
  0
VERTEX
  5
15E
  8
LAYER_1
 10
379.9999999999999
 20
13.54999999999991
 30
0.0
  0
VERTEX
  5
15F
  8
LAYER_1
 10
379.9999999999999
 20
16.44999999999997
 30
0.0
  0
VERTEX
  5
160
  8
LAYER_1
 10
369.9999999999999
 20
16.45000000000003
 30
0.0
  0
VERTEX
  5
161
  8
LAYER_1
 10
369.9999999999999
 20
13.54999999999994
 30
0.0
  0
SEQEND
  5
1A8
  8
LAYER_1
  0
POLYLINE
  5
85
  8
LAYER_1
 66
     1
 10
0.0
 20
0.0
 30
0.0
 70
     1
  0
VERTEX
  5
162
  8
LAYER_1
 10
399.9999999999999
 20
13.54999999999994
 30
0.0
  0
VERTEX
  5
163
  8
LAYER_1
 10
399.9999999999999
 20
16.44999999999997
 30
0.0
  0
VERTEX
  5
164
  8
LAYER_1
 10
389.9999999999999
 20
16.44999999999997
 30
0.0
  0
VERTEX
  5
165
  8
LAYER_1
 10
389.9999999999999
 20
13.54999999999997
 30
0.0
  0
SEQEND
  5
1A9
  8
LAYER_1
  0
POLYLINE
  5
86
  8
LAYER_1
 66
     1
 10
0.0
 20
0.0
 30
0.0
 70
     1
  0
VERTEX
  5
166
  8
LAYER_1
 10
393.2
 20
117.4
 30
0.0
  0
VERTEX
  5
167
  8
LAYER_1
 10
396.4
 20
117.4
 30
0.0
  0
VERTEX
  5
168
  8
LAYER_1
 10
396.4
 20
107.6
 30
0.0
  0
VERTEX
  5
169
  8
LAYER_1
 10
393.2
 20
107.6
 30
0.0
  0
VERTEX
  5
16A
  8
LAYER_1
 10
393.2
 20
97.4
 30
0.0
  0
VERTEX
  5
16B
  8
LAYER_1
 10
396.4
 20
97.4
 30
0.0
  0
VERTEX
  5
16C
  8
LAYER_1
 10
396.4
 20
87.60000000000002
 30
0.0
  0
VERTEX
  5
16D
  8
LAYER_1
 10
393.2
 20
87.60000000000002
 30
0.0
  0
VERTEX
  5
16E
  8
LAYER_1
 10
393.2
 20
77.39999999999998
 30
0.0
  0
VERTEX
  5
16F
  8
LAYER_1
 10
396.4
 20
77.39999999999998
 30
0.0
  0
VERTEX
  5
170
  8
LAYER_1
 10
396.4
 20
67.6
 30
0.0
  0
VERTEX
  5
171
  8
LAYER_1
 10
393.2
 20
67.6
 30
0.0
  0
VERTEX
  5
172
  8
LAYER_1
 10
393.2
 20
57.39999999999996
 30
0.0
  0
VERTEX
  5
173
  8
LAYER_1
 10
396.4
 20
57.39999999999996
 30
0.0
  0
VERTEX
  5
174
  8
LAYER_1
 10
396.4
 20
47.59999999999998
 30
0.0
  0
VERTEX
  5
175
  8
LAYER_1
 10
393.2
 20
47.59999999999998
 30
0.0
  0
VERTEX
  5
176
  8
LAYER_1
 10
393.2
 20
37.39999999999999
 30
0.0
  0
VERTEX
  5
177
  8
LAYER_1
 10
396.4
 20
37.39999999999999
 30
0.0
  0
VERTEX
  5
178
  8
LAYER_1
 10
396.4
 20
27.59999999999999
 30
0.0
  0
VERTEX
  5
179
  8
LAYER_1
 10
393.2
 20
27.59999999999999
 30
0.0
  0
VERTEX
  5
17A
  8
LAYER_1
 10
393.2
 20
20.0
 30
0.0
  0
VERTEX
  5
17B
  8
LAYER_1
 10
293.2
 20
20.0
 30
0.0
  0
VERTEX
  5
17C
  8
LAYER_1
 10
293.2
 20
27.59999999999999
 30
0.0
  0
VERTEX
  5
17D
  8
LAYER_1
 10
290.0
 20
27.59999999999999
 30
0.0
  0
VERTEX
  5
17E
  8
LAYER_1
 10
290.0
 20
37.39999999999999
 30
0.0
  0
VERTEX
  5
17F
  8
LAYER_1
 10
293.2
 20
37.39999999999999
 30
0.0
  0
VERTEX
  5
180
  8
LAYER_1
 10
293.2
 20
47.59999999999998
 30
0.0
  0
VERTEX
  5
181
  8
LAYER_1
 10
290.0
 20
47.59999999999998
 30
0.0
  0
VERTEX
  5
182
  8
LAYER_1
 10
290.0
 20
57.39999999999996
 30
0.0
  0
VERTEX
  5
183
  8
LAYER_1
 10
293.2
 20
57.39999999999996
 30
0.0
  0
VERTEX
  5
184
  8
LAYER_1
 10
293.2
 20
67.6
 30
0.0
  0
VERTEX
  5
185
  8
LAYER_1
 10
290.0
 20
67.6
 30
0.0
  0
VERTEX
  5
186
  8
LAYER_1
 10
290.0
 20
77.39999999999998
 30
0.0
  0
VERTEX
  5
187
  8
LAYER_1
 10
293.2
 20
77.39999999999998
 30
0.0
  0
VERTEX
  5
188
  8
LAYER_1
 10
293.2
 20
87.60000000000002
 30
0.0
  0
VERTEX
  5
189
  8
LAYER_1
 10
290.0
 20
87.60000000000002
 30
0.0
  0
VERTEX
  5
18A
  8
LAYER_1
 10
290.0
 20
97.4
 30
0.0
  0
VERTEX
  5
18B
  8
LAYER_1
 10
293.2
 20
97.4
 30
0.0
  0
VERTEX
  5
18C
  8
LAYER_1
 10
293.2
 20
107.6
 30
0.0
  0
VERTEX
  5
18D
  8
LAYER_1
 10
290.0
 20
107.6
 30
0.0
  0
VERTEX
  5
18E
  8
LAYER_1
 10
290.0
 20
117.4
 30
0.0
  0
VERTEX
  5
18F
  8
LAYER_1
 10
293.2
 20
117.4
 30
0.0
  0
VERTEX
  5
190
  8
LAYER_1
 10
293.2
 20
125.0
 30
0.0
  0
VERTEX
  5
191
  8
LAYER_1
 10
393.2
 20
125.0
 30
0.0
  0
SEQEND
  5
1AA
  8
LAYER_1
  0
ENDSEC
  0
EOF
